<mxfile host="app.diagrams.net" modified="2020-09-23T06:36:20.686Z" agent="5.0 (Windows NT 10.0; WOW64) AppleWebKit/537.36 (KHTML, like Gecko) Chrome/72.0.3626.81 Safari/537.36 SE 2.X MetaSr 1.0" etag="v__Uk5UFgFD01h7bWOZs" version="13.7.4" type="github">
  <diagram id="Yp3Gnb4v9ax5-GN8fEgs" name="Page-1">
    <mxGraphModel dx="2981" dy="524" grid="1" gridSize="10" guides="1" tooltips="1" connect="1" arrows="1" fold="1" page="1" pageScale="1" pageWidth="827" pageHeight="1169" math="0" shadow="0">
      <root>
        <mxCell id="0" />
        <mxCell id="1" parent="0" />
        <mxCell id="fXSpXnBb6-kwfkcqd3j0-46" value="" style="rounded=1;whiteSpace=wrap;html=1;fillColor=none;dashed=1;" vertex="1" parent="1">
          <mxGeometry x="-664" y="511.25" width="284" height="100" as="geometry" />
        </mxCell>
        <mxCell id="fXSpXnBb6-kwfkcqd3j0-45" value="" style="rounded=1;whiteSpace=wrap;html=1;fillColor=none;dashed=1;" vertex="1" parent="1">
          <mxGeometry x="-664" y="322.5" width="284" height="171.87" as="geometry" />
        </mxCell>
        <mxCell id="fXSpXnBb6-kwfkcqd3j0-51" style="edgeStyle=orthogonalEdgeStyle;rounded=0;orthogonalLoop=1;jettySize=auto;html=1;exitX=1;exitY=0.5;exitDx=0;exitDy=0;entryX=0;entryY=0.5;entryDx=0;entryDy=0;" edge="1" parent="1" source="fXSpXnBb6-kwfkcqd3j0-2" target="fXSpXnBb6-kwfkcqd3j0-11">
          <mxGeometry relative="1" as="geometry">
            <Array as="points">
              <mxPoint x="-947" y="278" />
              <mxPoint x="-947" y="206" />
            </Array>
          </mxGeometry>
        </mxCell>
        <mxCell id="fXSpXnBb6-kwfkcqd3j0-2" value="&lt;p style=&quot;line-height: normal ; margin-top: 0pt ; margin-bottom: 0pt ; margin-left: 0in ; text-align: left ; direction: ltr ; unicode-bidi: embed ; word-break: normal&quot;&gt;&lt;span style=&quot;font-size: 12pt ; font-family: &amp;#34;calibri&amp;#34;&quot;&gt;Key Word&lt;/span&gt;&lt;/p&gt;" style="rounded=1;whiteSpace=wrap;html=1;fontSize=12;glass=0;strokeWidth=1;shadow=0;fillColor=#fff2cc;strokeColor=#d6b656;" vertex="1" parent="1">
          <mxGeometry x="-1120" y="252.5" width="138" height="50" as="geometry" />
        </mxCell>
        <mxCell id="fXSpXnBb6-kwfkcqd3j0-3" value="&lt;p style=&quot;margin-top: 0pt ; margin-bottom: 0pt ; margin-left: 0in ; text-align: left ; direction: ltr ; unicode-bidi: embed ; word-break: normal&quot;&gt;&lt;font face=&quot;calibri&quot;&gt;&lt;span style=&quot;font-size: 16px&quot;&gt;Simplified Chinese Characters&lt;/span&gt;&lt;/font&gt;&lt;/p&gt;" style="rounded=1;whiteSpace=wrap;html=1;fontSize=12;glass=0;strokeWidth=1;shadow=0;fillColor=#fff2cc;strokeColor=#d6b656;" vertex="1" parent="1">
          <mxGeometry x="-647.5" y="180" width="217.5" height="50" as="geometry" />
        </mxCell>
        <mxCell id="fXSpXnBb6-kwfkcqd3j0-8" value="&lt;span style=&quot;font-size: 12pt ; font-family: &amp;#34;calibri&amp;#34;&quot;&gt;Combination and Voting&lt;/span&gt;" style="shape=parallelogram;perimeter=parallelogramPerimeter;whiteSpace=wrap;html=1;fixedSize=1;fontColor=#000000;" vertex="1" parent="1">
          <mxGeometry x="-930" y="432.5" width="240" height="52.5" as="geometry" />
        </mxCell>
        <mxCell id="fXSpXnBb6-kwfkcqd3j0-9" value="&lt;span style=&quot;font-family: &amp;#34;calibri&amp;#34; ; font-size: 16px&quot;&gt;TRIE model and Skip Gram&lt;/span&gt;" style="shape=parallelogram;perimeter=parallelogramPerimeter;whiteSpace=wrap;html=1;fixedSize=1;fontColor=#000000;" vertex="1" parent="1">
          <mxGeometry x="-916.5" y="350" width="235" height="52.5" as="geometry" />
        </mxCell>
        <mxCell id="fXSpXnBb6-kwfkcqd3j0-10" value="&lt;span style=&quot;font-family: &amp;#34;calibri&amp;#34; ; font-size: 16px&quot;&gt;TRIE model and Edit Distance&lt;/span&gt;" style="shape=parallelogram;perimeter=parallelogramPerimeter;whiteSpace=wrap;html=1;fixedSize=1;fontColor=#000000;" vertex="1" parent="1">
          <mxGeometry x="-917.5" y="250" width="235" height="52.5" as="geometry" />
        </mxCell>
        <mxCell id="fXSpXnBb6-kwfkcqd3j0-11" value="&lt;font face=&quot;calibri&quot;&gt;&lt;span style=&quot;font-size: 16px&quot;&gt;Translation and Pinyin&lt;/span&gt;&lt;/font&gt;" style="shape=parallelogram;perimeter=parallelogramPerimeter;whiteSpace=wrap;html=1;fixedSize=1;fontColor=#000000;" vertex="1" parent="1">
          <mxGeometry x="-917.5" y="180" width="235" height="52.5" as="geometry" />
        </mxCell>
        <mxCell id="fXSpXnBb6-kwfkcqd3j0-12" style="edgeStyle=orthogonalEdgeStyle;rounded=0;orthogonalLoop=1;jettySize=auto;html=1;fontColor=#000000;exitX=0.957;exitY=0.486;exitDx=0;exitDy=0;exitPerimeter=0;" edge="1" parent="1" source="fXSpXnBb6-kwfkcqd3j0-11">
          <mxGeometry relative="1" as="geometry">
            <mxPoint x="-647.5" y="205.8300000000001" as="targetPoint" />
            <mxPoint x="-687.5" y="205.8300000000001" as="sourcePoint" />
            <Array as="points">
              <mxPoint x="-662" y="206" />
            </Array>
          </mxGeometry>
        </mxCell>
        <mxCell id="fXSpXnBb6-kwfkcqd3j0-13" value="" style="rounded=1;whiteSpace=wrap;html=1;fillColor=none;dashed=1;" vertex="1" parent="1">
          <mxGeometry x="-664" y="138.13" width="274" height="171.87" as="geometry" />
        </mxCell>
        <mxCell id="fXSpXnBb6-kwfkcqd3j0-14" value="Correction" style="text;html=1;strokeColor=none;fillColor=none;align=center;verticalAlign=middle;whiteSpace=wrap;rounded=0;fontStyle=1;fontColor=#EA6B66;fontSize=15;" vertex="1" parent="1">
          <mxGeometry x="-681.5" y="150" width="159" height="20" as="geometry" />
        </mxCell>
        <mxCell id="fXSpXnBb6-kwfkcqd3j0-16" value="Match and correct the keywords list" style="text;html=1;strokeColor=none;fillColor=none;align=center;verticalAlign=middle;whiteSpace=wrap;rounded=0;fontStyle=1;fontColor=#EA6B66;fontSize=15;" vertex="1" parent="1">
          <mxGeometry x="-647.5" y="330" width="257.5" height="20" as="geometry" />
        </mxCell>
        <mxCell id="fXSpXnBb6-kwfkcqd3j0-19" style="edgeStyle=orthogonalEdgeStyle;rounded=0;orthogonalLoop=1;jettySize=auto;html=1;fontColor=#000000;" edge="1" parent="1" source="fXSpXnBb6-kwfkcqd3j0-20">
          <mxGeometry relative="1" as="geometry">
            <mxPoint x="-920.0000000000002" y="457.57" as="targetPoint" />
          </mxGeometry>
        </mxCell>
        <mxCell id="fXSpXnBb6-kwfkcqd3j0-20" value="&lt;p style=&quot;line-height: normal ; margin-top: 0pt ; margin-bottom: 0pt ; margin-left: 0in ; text-align: left ; direction: ltr ; unicode-bidi: embed ; word-break: normal&quot;&gt;&lt;span style=&quot;font-size: 12pt ; font-family: &amp;#34;calibri&amp;#34;&quot;&gt;Product Tagging&lt;/span&gt;&lt;/p&gt;" style="rounded=1;whiteSpace=wrap;html=1;fontSize=12;glass=0;strokeWidth=1;shadow=0;fillColor=#fff2cc;strokeColor=#d6b656;" vertex="1" parent="1">
          <mxGeometry x="-1120" y="432.5" width="138" height="50.63" as="geometry" />
        </mxCell>
        <mxCell id="fXSpXnBb6-kwfkcqd3j0-27" value="" style="edgeStyle=orthogonalEdgeStyle;rounded=0;orthogonalLoop=1;jettySize=auto;html=1;" edge="1" parent="1" source="fXSpXnBb6-kwfkcqd3j0-22" target="fXSpXnBb6-kwfkcqd3j0-25">
          <mxGeometry relative="1" as="geometry" />
        </mxCell>
        <mxCell id="fXSpXnBb6-kwfkcqd3j0-22" value="&lt;p style=&quot;line-height: normal ; margin-top: 0pt ; margin-bottom: 0pt ; margin-left: 0in ; text-align: left ; direction: ltr ; unicode-bidi: embed ; word-break: normal&quot;&gt;&lt;span style=&quot;font-size: 12pt ; font-family: &amp;#34;calibri&amp;#34;&quot;&gt;Given word&lt;/span&gt;&lt;/p&gt;" style="rounded=1;whiteSpace=wrap;html=1;fontSize=12;glass=0;strokeWidth=1;shadow=0;fillColor=#fff2cc;strokeColor=#d6b656;" vertex="1" parent="1">
          <mxGeometry x="-1120" y="547.5" width="138" height="50" as="geometry" />
        </mxCell>
        <mxCell id="fXSpXnBb6-kwfkcqd3j0-25" value="&lt;span style=&quot;font-size: 12pt ; font-family: &amp;#34;calibri&amp;#34;&quot;&gt;Rule Based Mactching&lt;/span&gt;" style="shape=parallelogram;perimeter=parallelogramPerimeter;whiteSpace=wrap;html=1;fixedSize=1;fontColor=#000000;" vertex="1" parent="1">
          <mxGeometry x="-930" y="546.25" width="230" height="52.5" as="geometry" />
        </mxCell>
        <mxCell id="fXSpXnBb6-kwfkcqd3j0-29" value="&lt;p style=&quot;margin-top: 0pt ; margin-bottom: 0pt ; margin-left: 0in ; text-align: left ; direction: ltr ; unicode-bidi: embed ; word-break: normal&quot;&gt;&lt;font face=&quot;calibri&quot;&gt;&lt;span style=&quot;font-size: 16px&quot;&gt;TRIE Corrected Key Words&lt;/span&gt;&lt;/font&gt;&lt;/p&gt;" style="rounded=1;whiteSpace=wrap;html=1;fontSize=12;glass=0;strokeWidth=1;shadow=0;fillColor=#fff2cc;strokeColor=#d6b656;" vertex="1" parent="1">
          <mxGeometry x="-647.5" y="247.5" width="217.5" height="50" as="geometry" />
        </mxCell>
        <mxCell id="fXSpXnBb6-kwfkcqd3j0-30" style="edgeStyle=orthogonalEdgeStyle;rounded=0;orthogonalLoop=1;jettySize=auto;html=1;fontColor=#000000;exitX=0.96;exitY=0.478;exitDx=0;exitDy=0;exitPerimeter=0;" edge="1" parent="1" source="fXSpXnBb6-kwfkcqd3j0-10">
          <mxGeometry relative="1" as="geometry">
            <mxPoint x="-647.5000000000002" y="275.8300000000001" as="targetPoint" />
            <mxPoint x="-687.5000000000002" y="275.8300000000001" as="sourcePoint" />
            <Array as="points">
              <mxPoint x="-670" y="275" />
            </Array>
          </mxGeometry>
        </mxCell>
        <mxCell id="fXSpXnBb6-kwfkcqd3j0-31" value="&lt;p style=&quot;margin-top: 0pt ; margin-bottom: 0pt ; margin-left: 0in ; text-align: left ; direction: ltr ; unicode-bidi: embed ; word-break: normal&quot;&gt;&lt;font face=&quot;calibri&quot;&gt;&lt;span style=&quot;font-size: 16px&quot;&gt;Auto-Completed Characters&lt;/span&gt;&lt;/font&gt;&lt;/p&gt;" style="rounded=1;whiteSpace=wrap;html=1;fontSize=12;glass=0;strokeWidth=1;shadow=0;fillColor=#fff2cc;strokeColor=#d6b656;" vertex="1" parent="1">
          <mxGeometry x="-647.5" y="357.5" width="217.5" height="50" as="geometry" />
        </mxCell>
        <mxCell id="fXSpXnBb6-kwfkcqd3j0-32" style="edgeStyle=orthogonalEdgeStyle;rounded=0;orthogonalLoop=1;jettySize=auto;html=1;fontColor=#000000;exitX=0.946;exitY=0.617;exitDx=0;exitDy=0;exitPerimeter=0;" edge="1" parent="1" source="fXSpXnBb6-kwfkcqd3j0-9">
          <mxGeometry relative="1" as="geometry">
            <mxPoint x="-647.5000000000002" y="382.4000000000001" as="targetPoint" />
            <mxPoint x="-687.5000000000002" y="382.4000000000001" as="sourcePoint" />
          </mxGeometry>
        </mxCell>
        <mxCell id="fXSpXnBb6-kwfkcqd3j0-33" value="&lt;p style=&quot;margin-top: 0pt ; margin-bottom: 0pt ; margin-left: 0in ; text-align: left ; direction: ltr ; unicode-bidi: embed ; word-break: normal&quot;&gt;&lt;font face=&quot;calibri&quot;&gt;&lt;span style=&quot;font-size: 16px&quot;&gt;Related List&lt;/span&gt;&lt;/font&gt;&lt;/p&gt;" style="rounded=1;whiteSpace=wrap;html=1;fontSize=12;glass=0;strokeWidth=1;shadow=0;fillColor=#fff2cc;strokeColor=#d6b656;" vertex="1" parent="1">
          <mxGeometry x="-647.5" y="432.5" width="217.5" height="50" as="geometry" />
        </mxCell>
        <mxCell id="fXSpXnBb6-kwfkcqd3j0-34" style="edgeStyle=orthogonalEdgeStyle;rounded=0;orthogonalLoop=1;jettySize=auto;html=1;fontColor=#000000;exitX=1;exitY=0.5;exitDx=0;exitDy=0;" edge="1" parent="1" source="fXSpXnBb6-kwfkcqd3j0-8">
          <mxGeometry relative="1" as="geometry">
            <mxPoint x="-647.5000000000002" y="459.9000000000001" as="targetPoint" />
            <mxPoint x="-687.5000000000002" y="459.9000000000001" as="sourcePoint" />
            <Array as="points">
              <mxPoint x="-700" y="460" />
              <mxPoint x="-669" y="460" />
            </Array>
          </mxGeometry>
        </mxCell>
        <mxCell id="fXSpXnBb6-kwfkcqd3j0-37" value="Related content recommendation" style="text;html=1;strokeColor=none;fillColor=none;align=center;verticalAlign=middle;whiteSpace=wrap;rounded=0;fontStyle=1;fontColor=#EA6B66;fontSize=15;" vertex="1" parent="1">
          <mxGeometry x="-652.5" y="511.25" width="257.5" height="20" as="geometry" />
        </mxCell>
        <mxCell id="fXSpXnBb6-kwfkcqd3j0-38" value="&lt;p style=&quot;margin-top: 0pt ; margin-bottom: 0pt ; margin-left: 0in ; text-align: left ; direction: ltr ; unicode-bidi: embed ; word-break: normal&quot;&gt;&lt;font face=&quot;calibri&quot;&gt;&lt;span style=&quot;font-size: 16px&quot;&gt;Related content&lt;/span&gt;&lt;/font&gt;&lt;/p&gt;" style="rounded=1;whiteSpace=wrap;html=1;fontSize=12;glass=0;strokeWidth=1;shadow=0;fillColor=#fff2cc;strokeColor=#d6b656;" vertex="1" parent="1">
          <mxGeometry x="-652.5" y="546.25" width="217.5" height="50" as="geometry" />
        </mxCell>
        <mxCell id="fXSpXnBb6-kwfkcqd3j0-39" style="edgeStyle=orthogonalEdgeStyle;rounded=0;orthogonalLoop=1;jettySize=auto;html=1;fontColor=#000000;" edge="1" parent="1" source="fXSpXnBb6-kwfkcqd3j0-25">
          <mxGeometry relative="1" as="geometry">
            <mxPoint x="-652.5000000000002" y="571.1500000000001" as="targetPoint" />
            <mxPoint x="-692.5000000000002" y="571.1500000000001" as="sourcePoint" />
            <Array as="points">
              <mxPoint x="-684" y="571" />
            </Array>
          </mxGeometry>
        </mxCell>
        <mxCell id="fXSpXnBb6-kwfkcqd3j0-43" style="edgeStyle=orthogonalEdgeStyle;rounded=0;orthogonalLoop=1;jettySize=auto;html=1;fontColor=#000000;exitX=1;exitY=0.5;exitDx=0;exitDy=0;" edge="1" parent="1">
          <mxGeometry relative="1" as="geometry">
            <mxPoint x="-913.5" y="380.0000000000001" as="targetPoint" />
            <mxPoint x="-979" y="277.5" as="sourcePoint" />
            <Array as="points">
              <mxPoint x="-947" y="277" />
              <mxPoint x="-947" y="380" />
            </Array>
          </mxGeometry>
        </mxCell>
        <mxCell id="fXSpXnBb6-kwfkcqd3j0-53" style="edgeStyle=orthogonalEdgeStyle;rounded=0;orthogonalLoop=1;jettySize=auto;html=1;exitX=1;exitY=0.5;exitDx=0;exitDy=0;entryX=0;entryY=0.5;entryDx=0;entryDy=0;" edge="1" parent="1">
          <mxGeometry relative="1" as="geometry">
            <mxPoint x="-982" y="279.5" as="sourcePoint" />
            <mxPoint x="-907.5" y="278.25" as="targetPoint" />
            <Array as="points">
              <mxPoint x="-982" y="278" />
              <mxPoint x="-948" y="278" />
            </Array>
          </mxGeometry>
        </mxCell>
      </root>
    </mxGraphModel>
  </diagram>
</mxfile>
